solid OpenSCAD_Model
  facet normal -0.891056 0 0.453893
    outer loop
      vertex 23.3408 0 3.97138
      vertex 23.5893 2.6 4.45922
      vertex 23.3408 2.6 3.97138
    endloop
  endfacet
  facet normal -0.891056 0 0.453893
    outer loop
      vertex 23.5893 2.6 4.45922
      vertex 23.3408 0 3.97138
      vertex 23.5893 0 4.45922
    endloop
  endfacet
  facet normal -0.891056 0 0.453893
    outer loop
      vertex 23.3408 5.1 3.97138
      vertex 23.5893 7.7 4.45922
      vertex 23.3408 7.7 3.97138
    endloop
  endfacet
  facet normal -0.891056 0 0.453893
    outer loop
      vertex 23.5893 7.7 4.45922
      vertex 23.3408 5.1 3.97138
      vertex 23.5893 5.1 4.45922
    endloop
  endfacet
  facet normal -0.987675 0 0.156522
    outer loop
      vertex 23.5893 5.1 4.45922
      vertex 23.675 7.7 5
      vertex 23.5893 7.7 4.45922
    endloop
  endfacet
  facet normal -0.987675 0 0.156522
    outer loop
      vertex 23.675 7.7 5
      vertex 23.5893 5.1 4.45922
      vertex 23.675 5.1 5
    endloop
  endfacet
  facet normal -0.987675 0 0.156522
    outer loop
      vertex 23.5893 0 4.45922
      vertex 23.675 2.6 5
      vertex 23.5893 2.6 4.45922
    endloop
  endfacet
  facet normal -0.987675 0 0.156522
    outer loop
      vertex 23.675 2.6 5
      vertex 23.5893 0 4.45922
      vertex 23.675 0 5
    endloop
  endfacet
  facet normal 0 1 0
    outer loop
      vertex 26.925 7.7 25
      vertex 21.925 7.7 22.35
      vertex 16.925 7.7 25
    endloop
  endfacet
  facet normal 0 1 0
    outer loop
      vertex 26.925 7.7 25
      vertex 22.4658 7.7 22.2643
      vertex 21.925 7.7 22.35
    endloop
  endfacet
  facet normal 0 1 0
    outer loop
      vertex 26.925 7.7 25
      vertex 22.9536 7.7 22.0158
      vertex 22.4658 7.7 22.2643
    endloop
  endfacet
  facet normal 0 1 0
    outer loop
      vertex 26.925 7.7 25
      vertex 23.3408 7.7 21.6286
      vertex 22.9536 7.7 22.0158
    endloop
  endfacet
  facet normal 0 1 0
    outer loop
      vertex 26.925 7.7 25
      vertex 23.5893 7.7 21.1408
      vertex 23.3408 7.7 21.6286
    endloop
  endfacet
  facet normal 0 1 0
    outer loop
      vertex 26.925 7.7 25
      vertex 23.675 7.7 20.6
      vertex 23.5893 7.7 21.1408
    endloop
  endfacet
  facet normal 0 1 0
    outer loop
      vertex 26.925 7.7 25
      vertex 23.675 7.7 5
      vertex 23.675 7.7 20.6
    endloop
  endfacet
  facet normal 0 1 -0
    outer loop
      vertex 26.925 7.7 0
      vertex 23.675 7.7 5
      vertex 26.925 7.7 25
    endloop
  endfacet
  facet normal 0 1 0
    outer loop
      vertex 23.675 7.7 5
      vertex 26.925 7.7 0
      vertex 23.5893 7.7 4.45922
    endloop
  endfacet
  facet normal 0 1 0
    outer loop
      vertex 26.925 7.7 0
      vertex 23.3408 7.7 3.97138
      vertex 23.5893 7.7 4.45922
    endloop
  endfacet
  facet normal 0 1 0
    outer loop
      vertex 26.925 7.7 0
      vertex 22.9536 7.7 3.58422
      vertex 23.3408 7.7 3.97138
    endloop
  endfacet
  facet normal 0 1 0
    outer loop
      vertex 26.925 7.7 0
      vertex 22.4658 7.7 3.33565
      vertex 22.9536 7.7 3.58422
    endloop
  endfacet
  facet normal 0 1 0
    outer loop
      vertex 26.925 7.7 0
      vertex 21.925 7.7 3.25
      vertex 22.4658 7.7 3.33565
    endloop
  endfacet
  facet normal 0 1 0
    outer loop
      vertex 21.3842 7.7 3.33565
      vertex 26.925 7.7 0
      vertex 8.725 7.7 1.8
    endloop
  endfacet
  facet normal 0 1 0
    outer loop
      vertex 0 7.7 0
      vertex 8.725 7.7 1.8
      vertex 26.925 7.7 0
    endloop
  endfacet
  facet normal 0 1 0
    outer loop
      vertex 8.725 7.7 1.8
      vertex 0 7.7 0
      vertex 0 7.7 1.8
    endloop
  endfacet
  facet normal 0 1 -0
    outer loop
      vertex 21.3842 7.7 22.2643
      vertex 16.925 7.7 25
      vertex 21.925 7.7 22.35
    endloop
  endfacet
  facet normal 0 1 -0
    outer loop
      vertex 20.8964 7.7 22.0158
      vertex 16.925 7.7 25
      vertex 21.3842 7.7 22.2643
    endloop
  endfacet
  facet normal 0 1 -0
    outer loop
      vertex 20.5092 7.7 21.6286
      vertex 16.925 7.7 25
      vertex 20.8964 7.7 22.0158
    endloop
  endfacet
  facet normal 0 1 -0
    outer loop
      vertex 20.2607 7.7 21.1408
      vertex 16.925 7.7 25
      vertex 20.5092 7.7 21.6286
    endloop
  endfacet
  facet normal 0 1 -0
    outer loop
      vertex 20.175 7.7 20.6
      vertex 16.925 7.7 25
      vertex 20.2607 7.7 21.1408
    endloop
  endfacet
  facet normal 0 1 0
    outer loop
      vertex 20.175 7.7 20.6
      vertex 16.925 7.7 10
      vertex 16.925 7.7 25
    endloop
  endfacet
  facet normal 0 1 -0
    outer loop
      vertex 20.175 7.7 5
      vertex 16.925 7.7 10
      vertex 20.175 7.7 20.6
    endloop
  endfacet
  facet normal 0 1 0
    outer loop
      vertex 8.725 7.7 1.8
      vertex 20.175 7.7 5
      vertex 20.2607 7.7 4.45922
    endloop
  endfacet
  facet normal 0 1 0
    outer loop
      vertex 8.725 7.7 1.8
      vertex 20.2607 7.7 4.45922
      vertex 20.5092 7.7 3.97138
    endloop
  endfacet
  facet normal 0 1 0
    outer loop
      vertex 20.175 7.7 5
      vertex 8.725 7.7 1.8
      vertex 16.925 7.7 10
    endloop
  endfacet
  facet normal 0 1 0
    outer loop
      vertex 20.8964 7.7 3.58422
      vertex 8.725 7.7 1.8
      vertex 20.5092 7.7 3.97138
    endloop
  endfacet
  facet normal 0 1 0
    outer loop
      vertex 21.3842 7.7 3.33565
      vertex 8.725 7.7 1.8
      vertex 20.8964 7.7 3.58422
    endloop
  endfacet
  facet normal 0 1 0
    outer loop
      vertex 26.925 7.7 0
      vertex 21.3842 7.7 3.33565
      vertex 21.925 7.7 3.25
    endloop
  endfacet
  facet normal 0.454025 0 0.890989
    outer loop
      vertex 20.8964 7.7 3.58422
      vertex 21.3842 5.1 3.33565
      vertex 21.3842 7.7 3.33565
    endloop
  endfacet
  facet normal 0.454025 0 0.890989
    outer loop
      vertex 21.3842 5.1 3.33565
      vertex 20.8964 7.7 3.58422
      vertex 20.8964 5.1 3.58422
    endloop
  endfacet
  facet normal 0.454025 0 0.890989
    outer loop
      vertex 20.8964 2.6 3.58422
      vertex 21.3842 0 3.33565
      vertex 21.3842 2.6 3.33565
    endloop
  endfacet
  facet normal 0.454025 0 0.890989
    outer loop
      vertex 21.3842 0 3.33565
      vertex 20.8964 2.6 3.58422
      vertex 20.8964 0 3.58422
    endloop
  endfacet
  facet normal 0.156427 0 0.98769
    outer loop
      vertex 21.3842 2.6 3.33565
      vertex 21.925 0 3.25
      vertex 21.925 2.6 3.25
    endloop
  endfacet
  facet normal 0.156427 0 0.98769
    outer loop
      vertex 21.925 0 3.25
      vertex 21.3842 2.6 3.33565
      vertex 21.3842 0 3.33565
    endloop
  endfacet
  facet normal 0.156427 0 0.98769
    outer loop
      vertex 21.3842 7.7 3.33565
      vertex 21.925 5.1 3.25
      vertex 21.925 7.7 3.25
    endloop
  endfacet
  facet normal 0.156427 0 0.98769
    outer loop
      vertex 21.925 5.1 3.25
      vertex 21.3842 7.7 3.33565
      vertex 21.3842 5.1 3.33565
    endloop
  endfacet
  facet normal 0.70707 -0 0.707143
    outer loop
      vertex 20.5092 5.1 3.97138
      vertex 20.8964 7.7 3.58422
      vertex 20.5092 7.7 3.97138
    endloop
  endfacet
  facet normal 0.70707 0 0.707143
    outer loop
      vertex 20.8964 7.7 3.58422
      vertex 20.5092 5.1 3.97138
      vertex 20.8964 5.1 3.58422
    endloop
  endfacet
  facet normal 0.70707 -0 0.707143
    outer loop
      vertex 20.5092 0 3.97138
      vertex 20.8964 2.6 3.58422
      vertex 20.5092 2.6 3.97138
    endloop
  endfacet
  facet normal 0.70707 0 0.707143
    outer loop
      vertex 20.8964 2.6 3.58422
      vertex 20.5092 0 3.97138
      vertex 20.8964 0 3.58422
    endloop
  endfacet
  facet normal 0.987675 -0 0.156522
    outer loop
      vertex 20.175 5.1 5
      vertex 20.2607 7.7 4.45922
      vertex 20.175 7.7 5
    endloop
  endfacet
  facet normal 0.987675 0 0.156522
    outer loop
      vertex 20.2607 7.7 4.45922
      vertex 20.175 5.1 5
      vertex 20.2607 5.1 4.45922
    endloop
  endfacet
  facet normal 0.987675 -0 0.156522
    outer loop
      vertex 20.175 0 5
      vertex 20.2607 2.6 4.45922
      vertex 20.175 2.6 5
    endloop
  endfacet
  facet normal 0.987675 0 0.156522
    outer loop
      vertex 20.2607 2.6 4.45922
      vertex 20.175 0 5
      vertex 20.2607 0 4.45922
    endloop
  endfacet
  facet normal -0.156427 0 0.98769
    outer loop
      vertex 21.925 7.7 3.25
      vertex 22.4658 5.1 3.33565
      vertex 22.4658 7.7 3.33565
    endloop
  endfacet
  facet normal -0.156427 0 0.98769
    outer loop
      vertex 22.4658 5.1 3.33565
      vertex 21.925 7.7 3.25
      vertex 21.925 5.1 3.25
    endloop
  endfacet
  facet normal -0.156427 0 0.98769
    outer loop
      vertex 21.925 2.6 3.25
      vertex 22.4658 0 3.33565
      vertex 22.4658 2.6 3.33565
    endloop
  endfacet
  facet normal -0.156427 0 0.98769
    outer loop
      vertex 22.4658 0 3.33565
      vertex 21.925 2.6 3.25
      vertex 21.925 0 3.25
    endloop
  endfacet
  facet normal -0.454025 0 0.890989
    outer loop
      vertex 22.4658 7.7 3.33565
      vertex 22.9536 5.1 3.58422
      vertex 22.9536 7.7 3.58422
    endloop
  endfacet
  facet normal -0.454025 0 0.890989
    outer loop
      vertex 22.9536 5.1 3.58422
      vertex 22.4658 7.7 3.33565
      vertex 22.4658 5.1 3.33565
    endloop
  endfacet
  facet normal -0.454025 0 0.890989
    outer loop
      vertex 22.4658 2.6 3.33565
      vertex 22.9536 0 3.58422
      vertex 22.9536 2.6 3.58422
    endloop
  endfacet
  facet normal -0.454025 0 0.890989
    outer loop
      vertex 22.9536 0 3.58422
      vertex 22.4658 2.6 3.33565
      vertex 22.4658 0 3.33565
    endloop
  endfacet
  facet normal 0.891056 -0 0.453893
    outer loop
      vertex 20.2607 5.1 4.45922
      vertex 20.5092 7.7 3.97138
      vertex 20.2607 7.7 4.45922
    endloop
  endfacet
  facet normal 0.891056 0 0.453893
    outer loop
      vertex 20.5092 7.7 3.97138
      vertex 20.2607 5.1 4.45922
      vertex 20.5092 5.1 3.97138
    endloop
  endfacet
  facet normal 0.891056 -0 0.453893
    outer loop
      vertex 20.2607 0 4.45922
      vertex 20.5092 2.6 3.97138
      vertex 20.2607 2.6 4.45922
    endloop
  endfacet
  facet normal 0.891056 0 0.453893
    outer loop
      vertex 20.5092 2.6 3.97138
      vertex 20.2607 0 4.45922
      vertex 20.5092 0 3.97138
    endloop
  endfacet
  facet normal -0.70707 0 0.707143
    outer loop
      vertex 22.9536 0 3.58422
      vertex 23.3408 2.6 3.97138
      vertex 22.9536 2.6 3.58422
    endloop
  endfacet
  facet normal -0.70707 0 0.707143
    outer loop
      vertex 23.3408 2.6 3.97138
      vertex 22.9536 0 3.58422
      vertex 23.3408 0 3.97138
    endloop
  endfacet
  facet normal -0.70707 0 0.707143
    outer loop
      vertex 22.9536 5.1 3.58422
      vertex 23.3408 7.7 3.97138
      vertex 22.9536 7.7 3.58422
    endloop
  endfacet
  facet normal -0.70707 0 0.707143
    outer loop
      vertex 23.3408 7.7 3.97138
      vertex 22.9536 5.1 3.58422
      vertex 23.3408 5.1 3.97138
    endloop
  endfacet
  facet normal 0 -1 0
    outer loop
      vertex 0 0 1.8
      vertex 0 0 0
      vertex 8.725 0 1.8
    endloop
  endfacet
  facet normal 0 -1 0
    outer loop
      vertex 16.925 0 25
      vertex 21.925 0 22.35
      vertex 26.925 0 25
    endloop
  endfacet
  facet normal 0 -1 0
    outer loop
      vertex 16.925 0 25
      vertex 21.3842 0 22.2643
      vertex 21.925 0 22.35
    endloop
  endfacet
  facet normal 0 -1 0
    outer loop
      vertex 16.925 0 25
      vertex 20.8964 0 22.0158
      vertex 21.3842 0 22.2643
    endloop
  endfacet
  facet normal 0 -1 0
    outer loop
      vertex 16.925 0 25
      vertex 20.5092 0 21.6286
      vertex 20.8964 0 22.0158
    endloop
  endfacet
  facet normal 0 -1 0
    outer loop
      vertex 16.925 0 25
      vertex 20.2607 0 21.1408
      vertex 20.5092 0 21.6286
    endloop
  endfacet
  facet normal 0 -1 0
    outer loop
      vertex 16.925 0 25
      vertex 20.175 0 20.6
      vertex 20.2607 0 21.1408
    endloop
  endfacet
  facet normal 0 -1 0
    outer loop
      vertex 16.925 0 10
      vertex 20.175 0 20.6
      vertex 16.925 0 25
    endloop
  endfacet
  facet normal 0 -1 0
    outer loop
      vertex 16.925 0 10
      vertex 20.175 0 5
      vertex 20.175 0 20.6
    endloop
  endfacet
  facet normal 0 -1 0
    outer loop
      vertex 8.725 0 1.8
      vertex 20.175 0 5
      vertex 16.925 0 10
    endloop
  endfacet
  facet normal 0 -1 -0
    outer loop
      vertex 20.175 0 5
      vertex 8.725 0 1.8
      vertex 20.2607 0 4.45922
    endloop
  endfacet
  facet normal 0 -1 0
    outer loop
      vertex 26.925 0 0
      vertex 21.3842 0 3.33565
      vertex 8.725 0 1.8
    endloop
  endfacet
  facet normal 0 -1 -0
    outer loop
      vertex 20.8964 0 3.58422
      vertex 8.725 0 1.8
      vertex 21.3842 0 3.33565
    endloop
  endfacet
  facet normal 0 -1 -0
    outer loop
      vertex 20.5092 0 3.97138
      vertex 8.725 0 1.8
      vertex 20.8964 0 3.58422
    endloop
  endfacet
  facet normal 0 -1 -0
    outer loop
      vertex 20.2607 0 4.45922
      vertex 8.725 0 1.8
      vertex 20.5092 0 3.97138
    endloop
  endfacet
  facet normal 0 -1 0
    outer loop
      vertex 22.4658 0 22.2643
      vertex 26.925 0 25
      vertex 21.925 0 22.35
    endloop
  endfacet
  facet normal 0 -1 0
    outer loop
      vertex 22.9536 0 22.0158
      vertex 26.925 0 25
      vertex 22.4658 0 22.2643
    endloop
  endfacet
  facet normal 0 -1 0
    outer loop
      vertex 23.3408 0 21.6286
      vertex 26.925 0 25
      vertex 22.9536 0 22.0158
    endloop
  endfacet
  facet normal 0 -1 0
    outer loop
      vertex 23.5893 0 21.1408
      vertex 26.925 0 25
      vertex 23.3408 0 21.6286
    endloop
  endfacet
  facet normal 0 -1 0
    outer loop
      vertex 23.675 0 20.6
      vertex 26.925 0 25
      vertex 23.5893 0 21.1408
    endloop
  endfacet
  facet normal 0 -1 0
    outer loop
      vertex 23.675 0 5
      vertex 26.925 0 25
      vertex 23.675 0 20.6
    endloop
  endfacet
  facet normal 0 -1 0
    outer loop
      vertex 26.925 0 0
      vertex 23.675 0 5
      vertex 23.5893 0 4.45922
    endloop
  endfacet
  facet normal 0 -1 0
    outer loop
      vertex 26.925 0 0
      vertex 8.725 0 1.8
      vertex 0 0 0
    endloop
  endfacet
  facet normal 0 -1 0
    outer loop
      vertex 23.675 0 5
      vertex 26.925 0 0
      vertex 26.925 0 25
    endloop
  endfacet
  facet normal 0 -1 0
    outer loop
      vertex 23.3408 0 3.97138
      vertex 26.925 0 0
      vertex 23.5893 0 4.45922
    endloop
  endfacet
  facet normal 0 -1 0
    outer loop
      vertex 22.9536 0 3.58422
      vertex 26.925 0 0
      vertex 23.3408 0 3.97138
    endloop
  endfacet
  facet normal 0 -1 0
    outer loop
      vertex 22.4658 0 3.33565
      vertex 26.925 0 0
      vertex 22.9536 0 3.58422
    endloop
  endfacet
  facet normal 0 -1 0
    outer loop
      vertex 21.925 0 3.25
      vertex 26.925 0 0
      vertex 22.4658 0 3.33565
    endloop
  endfacet
  facet normal 0 -1 0
    outer loop
      vertex 21.3842 0 3.33565
      vertex 26.925 0 0
      vertex 21.925 0 3.25
    endloop
  endfacet
  facet normal 1 0 0
    outer loop
      vertex 26.925 7.7 25
      vertex 26.925 5.1 8.9
      vertex 26.925 7.7 0
    endloop
  endfacet
  facet normal 1 0 0
    outer loop
      vertex 26.925 7.7 25
      vertex 26.925 2.6 8.9
      vertex 26.925 5.1 8.9
    endloop
  endfacet
  facet normal 1 0 0
    outer loop
      vertex 26.925 0 0
      vertex 26.925 2.6 8.9
      vertex 26.925 0 25
    endloop
  endfacet
  facet normal 1 -0 0
    outer loop
      vertex 26.925 0 25
      vertex 26.925 2.6 8.9
      vertex 26.925 7.7 25
    endloop
  endfacet
  facet normal 1 -0 0
    outer loop
      vertex 26.925 5.1 2.5
      vertex 26.925 7.7 0
      vertex 26.925 5.1 8.9
    endloop
  endfacet
  facet normal 1 -0 0
    outer loop
      vertex 26.925 2.6 2.5
      vertex 26.925 7.7 0
      vertex 26.925 5.1 2.5
    endloop
  endfacet
  facet normal 1 0 0
    outer loop
      vertex 26.925 2.6 2.5
      vertex 26.925 0 0
      vertex 26.925 7.7 0
    endloop
  endfacet
  facet normal 1 0 0
    outer loop
      vertex 26.925 2.6 8.9
      vertex 26.925 0 0
      vertex 26.925 2.6 2.5
    endloop
  endfacet
  facet normal 0 0 -1
    outer loop
      vertex 25.125 2.6 8.9
      vertex 26.925 5.1 8.9
      vertex 26.925 2.6 8.9
    endloop
  endfacet
  facet normal -0 0 -1
    outer loop
      vertex 26.925 5.1 8.9
      vertex 25.125 2.6 8.9
      vertex 25.125 5.1 8.9
    endloop
  endfacet
  facet normal -0 0 1
    outer loop
      vertex 18.725 5.1 2.5
      vertex 26.925 2.6 2.5
      vertex 26.925 5.1 2.5
    endloop
  endfacet
  facet normal 0 0 1
    outer loop
      vertex 26.925 2.6 2.5
      vertex 18.725 5.1 2.5
      vertex 18.725 2.6 2.5
    endloop
  endfacet
  facet normal 1 -0 0
    outer loop
      vertex 18.725 2.6 23.8
      vertex 18.725 5.1 2.5
      vertex 18.725 5.1 23.8
    endloop
  endfacet
  facet normal 1 0 0
    outer loop
      vertex 18.725 5.1 2.5
      vertex 18.725 2.6 23.8
      vertex 18.725 2.6 2.5
    endloop
  endfacet
  facet normal 0 -1 0
    outer loop
      vertex 18.725 5.1 23.8
      vertex 21.925 5.1 22.35
      vertex 25.125 5.1 23.8
    endloop
  endfacet
  facet normal 0 -1 0
    outer loop
      vertex 18.725 5.1 23.8
      vertex 21.3842 5.1 22.2643
      vertex 21.925 5.1 22.35
    endloop
  endfacet
  facet normal 0 -1 0
    outer loop
      vertex 18.725 5.1 23.8
      vertex 20.8964 5.1 22.0158
      vertex 21.3842 5.1 22.2643
    endloop
  endfacet
  facet normal 0 -1 0
    outer loop
      vertex 18.725 5.1 23.8
      vertex 20.5092 5.1 21.6286
      vertex 20.8964 5.1 22.0158
    endloop
  endfacet
  facet normal 0 -1 0
    outer loop
      vertex 18.725 5.1 23.8
      vertex 20.2607 5.1 21.1408
      vertex 20.5092 5.1 21.6286
    endloop
  endfacet
  facet normal 0 -1 0
    outer loop
      vertex 18.725 5.1 23.8
      vertex 20.175 5.1 20.6
      vertex 20.2607 5.1 21.1408
    endloop
  endfacet
  facet normal 0 -1 0
    outer loop
      vertex 18.725 5.1 2.5
      vertex 20.175 5.1 20.6
      vertex 18.725 5.1 23.8
    endloop
  endfacet
  facet normal 0 -1 -0
    outer loop
      vertex 21.3842 5.1 3.33565
      vertex 18.725 5.1 2.5
      vertex 21.925 5.1 3.25
    endloop
  endfacet
  facet normal 0 -1 -0
    outer loop
      vertex 20.8964 5.1 3.58422
      vertex 18.725 5.1 2.5
      vertex 21.3842 5.1 3.33565
    endloop
  endfacet
  facet normal 0 -1 -0
    outer loop
      vertex 20.5092 5.1 3.97138
      vertex 18.725 5.1 2.5
      vertex 20.8964 5.1 3.58422
    endloop
  endfacet
  facet normal 0 -1 -0
    outer loop
      vertex 20.2607 5.1 4.45922
      vertex 18.725 5.1 2.5
      vertex 20.5092 5.1 3.97138
    endloop
  endfacet
  facet normal 0 -1 -0
    outer loop
      vertex 20.175 5.1 5
      vertex 18.725 5.1 2.5
      vertex 20.2607 5.1 4.45922
    endloop
  endfacet
  facet normal 0 -1 -0
    outer loop
      vertex 20.175 5.1 20.6
      vertex 18.725 5.1 2.5
      vertex 20.175 5.1 5
    endloop
  endfacet
  facet normal 0 -1 0
    outer loop
      vertex 22.4658 5.1 22.2643
      vertex 25.125 5.1 23.8
      vertex 21.925 5.1 22.35
    endloop
  endfacet
  facet normal 0 -1 0
    outer loop
      vertex 22.9536 5.1 22.0158
      vertex 25.125 5.1 23.8
      vertex 22.4658 5.1 22.2643
    endloop
  endfacet
  facet normal 0 -1 0
    outer loop
      vertex 23.3408 5.1 21.6286
      vertex 25.125 5.1 23.8
      vertex 22.9536 5.1 22.0158
    endloop
  endfacet
  facet normal 0 -1 0
    outer loop
      vertex 23.5893 5.1 21.1408
      vertex 25.125 5.1 23.8
      vertex 23.3408 5.1 21.6286
    endloop
  endfacet
  facet normal 0 -1 0
    outer loop
      vertex 23.675 5.1 20.6
      vertex 25.125 5.1 23.8
      vertex 23.5893 5.1 21.1408
    endloop
  endfacet
  facet normal 0 -1 0
    outer loop
      vertex 23.675 5.1 20.6
      vertex 25.125 5.1 8.9
      vertex 25.125 5.1 23.8
    endloop
  endfacet
  facet normal 0 -1 0
    outer loop
      vertex 23.675 5.1 5
      vertex 25.125 5.1 8.9
      vertex 23.675 5.1 20.6
    endloop
  endfacet
  facet normal 0 -1 0
    outer loop
      vertex 23.675 5.1 5
      vertex 26.925 5.1 8.9
      vertex 25.125 5.1 8.9
    endloop
  endfacet
  facet normal 0 -1 0
    outer loop
      vertex 26.925 5.1 2.5
      vertex 23.675 5.1 5
      vertex 23.5893 5.1 4.45922
    endloop
  endfacet
  facet normal 0 -1 0
    outer loop
      vertex 26.925 5.1 2.5
      vertex 23.5893 5.1 4.45922
      vertex 23.3408 5.1 3.97138
    endloop
  endfacet
  facet normal 0 -1 0
    outer loop
      vertex 26.925 5.1 2.5
      vertex 21.925 5.1 3.25
      vertex 18.725 5.1 2.5
    endloop
  endfacet
  facet normal 0 -1 0
    outer loop
      vertex 23.675 5.1 5
      vertex 26.925 5.1 2.5
      vertex 26.925 5.1 8.9
    endloop
  endfacet
  facet normal 0 -1 0
    outer loop
      vertex 22.9536 5.1 3.58422
      vertex 26.925 5.1 2.5
      vertex 23.3408 5.1 3.97138
    endloop
  endfacet
  facet normal 0 -1 0
    outer loop
      vertex 22.4658 5.1 3.33565
      vertex 26.925 5.1 2.5
      vertex 22.9536 5.1 3.58422
    endloop
  endfacet
  facet normal 0 -1 0
    outer loop
      vertex 21.925 5.1 3.25
      vertex 26.925 5.1 2.5
      vertex 22.4658 5.1 3.33565
    endloop
  endfacet
  facet normal 0 1 0
    outer loop
      vertex 26.925 2.6 8.9
      vertex 23.675 2.6 5
      vertex 25.125 2.6 8.9
    endloop
  endfacet
  facet normal 0 1 -0
    outer loop
      vertex 26.925 2.6 2.5
      vertex 23.675 2.6 5
      vertex 26.925 2.6 8.9
    endloop
  endfacet
  facet normal 0 1 0
    outer loop
      vertex 23.675 2.6 5
      vertex 26.925 2.6 2.5
      vertex 23.5893 2.6 4.45922
    endloop
  endfacet
  facet normal 0 1 0
    outer loop
      vertex 22.4658 2.6 3.33565
      vertex 26.925 2.6 2.5
      vertex 21.925 2.6 3.25
    endloop
  endfacet
  facet normal 0 1 0
    outer loop
      vertex 22.9536 2.6 3.58422
      vertex 26.925 2.6 2.5
      vertex 22.4658 2.6 3.33565
    endloop
  endfacet
  facet normal 0 1 0
    outer loop
      vertex 23.3408 2.6 3.97138
      vertex 26.925 2.6 2.5
      vertex 22.9536 2.6 3.58422
    endloop
  endfacet
  facet normal 0 1 0
    outer loop
      vertex 23.5893 2.6 4.45922
      vertex 26.925 2.6 2.5
      vertex 23.3408 2.6 3.97138
    endloop
  endfacet
  facet normal 0 1 0
    outer loop
      vertex 25.125 2.6 23.8
      vertex 21.925 2.6 22.35
      vertex 18.725 2.6 23.8
    endloop
  endfacet
  facet normal 0 1 0
    outer loop
      vertex 25.125 2.6 23.8
      vertex 22.4658 2.6 22.2643
      vertex 21.925 2.6 22.35
    endloop
  endfacet
  facet normal 0 1 0
    outer loop
      vertex 25.125 2.6 23.8
      vertex 22.9536 2.6 22.0158
      vertex 22.4658 2.6 22.2643
    endloop
  endfacet
  facet normal 0 1 0
    outer loop
      vertex 25.125 2.6 23.8
      vertex 23.3408 2.6 21.6286
      vertex 22.9536 2.6 22.0158
    endloop
  endfacet
  facet normal 0 1 0
    outer loop
      vertex 25.125 2.6 23.8
      vertex 23.5893 2.6 21.1408
      vertex 23.3408 2.6 21.6286
    endloop
  endfacet
  facet normal 0 1 0
    outer loop
      vertex 25.125 2.6 23.8
      vertex 23.675 2.6 20.6
      vertex 23.5893 2.6 21.1408
    endloop
  endfacet
  facet normal 0 1 -0
    outer loop
      vertex 25.125 2.6 8.9
      vertex 23.675 2.6 20.6
      vertex 25.125 2.6 23.8
    endloop
  endfacet
  facet normal 0 1 0
    outer loop
      vertex 23.675 2.6 20.6
      vertex 25.125 2.6 8.9
      vertex 23.675 2.6 5
    endloop
  endfacet
  facet normal 0 1 -0
    outer loop
      vertex 21.3842 2.6 22.2643
      vertex 18.725 2.6 23.8
      vertex 21.925 2.6 22.35
    endloop
  endfacet
  facet normal 0 1 -0
    outer loop
      vertex 20.8964 2.6 22.0158
      vertex 18.725 2.6 23.8
      vertex 21.3842 2.6 22.2643
    endloop
  endfacet
  facet normal 0 1 -0
    outer loop
      vertex 20.5092 2.6 21.6286
      vertex 18.725 2.6 23.8
      vertex 20.8964 2.6 22.0158
    endloop
  endfacet
  facet normal 0 1 -0
    outer loop
      vertex 20.2607 2.6 21.1408
      vertex 18.725 2.6 23.8
      vertex 20.5092 2.6 21.6286
    endloop
  endfacet
  facet normal 0 1 -0
    outer loop
      vertex 20.175 2.6 20.6
      vertex 18.725 2.6 23.8
      vertex 20.2607 2.6 21.1408
    endloop
  endfacet
  facet normal 0 1 0
    outer loop
      vertex 18.725 2.6 2.5
      vertex 20.175 2.6 20.6
      vertex 20.175 2.6 5
    endloop
  endfacet
  facet normal 0 1 0
    outer loop
      vertex 20.175 2.6 20.6
      vertex 18.725 2.6 2.5
      vertex 18.725 2.6 23.8
    endloop
  endfacet
  facet normal 0 1 0
    outer loop
      vertex 20.2607 2.6 4.45922
      vertex 18.725 2.6 2.5
      vertex 20.175 2.6 5
    endloop
  endfacet
  facet normal 0 1 0
    outer loop
      vertex 20.5092 2.6 3.97138
      vertex 18.725 2.6 2.5
      vertex 20.2607 2.6 4.45922
    endloop
  endfacet
  facet normal 0 1 0
    outer loop
      vertex 20.8964 2.6 3.58422
      vertex 18.725 2.6 2.5
      vertex 20.5092 2.6 3.97138
    endloop
  endfacet
  facet normal 0 1 0
    outer loop
      vertex 21.3842 2.6 3.33565
      vertex 18.725 2.6 2.5
      vertex 20.8964 2.6 3.58422
    endloop
  endfacet
  facet normal 0 1 0
    outer loop
      vertex 21.925 2.6 3.25
      vertex 18.725 2.6 2.5
      vertex 21.3842 2.6 3.33565
    endloop
  endfacet
  facet normal 0 1 0
    outer loop
      vertex 18.725 2.6 2.5
      vertex 21.925 2.6 3.25
      vertex 26.925 2.6 2.5
    endloop
  endfacet
  facet normal -1 0 0
    outer loop
      vertex 25.125 2.6 8.9
      vertex 25.125 5.1 23.8
      vertex 25.125 5.1 8.9
    endloop
  endfacet
  facet normal -1 -0 0
    outer loop
      vertex 25.125 5.1 23.8
      vertex 25.125 2.6 8.9
      vertex 25.125 2.6 23.8
    endloop
  endfacet
  facet normal 0 0 -1
    outer loop
      vertex 18.725 2.6 23.8
      vertex 25.125 5.1 23.8
      vertex 25.125 2.6 23.8
    endloop
  endfacet
  facet normal -0 0 -1
    outer loop
      vertex 25.125 5.1 23.8
      vertex 18.725 2.6 23.8
      vertex 18.725 5.1 23.8
    endloop
  endfacet
  facet normal -1 0 0
    outer loop
      vertex 23.675 0 5
      vertex 23.675 2.6 20.6
      vertex 23.675 2.6 5
    endloop
  endfacet
  facet normal -1 -0 0
    outer loop
      vertex 23.675 2.6 20.6
      vertex 23.675 0 5
      vertex 23.675 0 20.6
    endloop
  endfacet
  facet normal 1 -0 0
    outer loop
      vertex 20.175 0 20.6
      vertex 20.175 2.6 5
      vertex 20.175 2.6 20.6
    endloop
  endfacet
  facet normal 1 0 0
    outer loop
      vertex 20.175 2.6 5
      vertex 20.175 0 20.6
      vertex 20.175 0 5
    endloop
  endfacet
  facet normal -1 0 0
    outer loop
      vertex 23.675 5.1 5
      vertex 23.675 7.7 20.6
      vertex 23.675 7.7 5
    endloop
  endfacet
  facet normal -1 -0 0
    outer loop
      vertex 23.675 7.7 20.6
      vertex 23.675 5.1 5
      vertex 23.675 5.1 20.6
    endloop
  endfacet
  facet normal 1 -0 0
    outer loop
      vertex 20.175 5.1 20.6
      vertex 20.175 7.7 5
      vertex 20.175 7.7 20.6
    endloop
  endfacet
  facet normal 1 0 0
    outer loop
      vertex 20.175 7.7 5
      vertex 20.175 5.1 20.6
      vertex 20.175 5.1 5
    endloop
  endfacet
  facet normal -0.453923 0 -0.891041
    outer loop
      vertex 22.4658 0 22.2643
      vertex 22.9536 2.6 22.0158
      vertex 22.9536 0 22.0158
    endloop
  endfacet
  facet normal -0.453923 0 -0.891041
    outer loop
      vertex 22.9536 2.6 22.0158
      vertex 22.4658 0 22.2643
      vertex 22.4658 2.6 22.2643
    endloop
  endfacet
  facet normal -0.453923 0 -0.891041
    outer loop
      vertex 22.4658 5.1 22.2643
      vertex 22.9536 7.7 22.0158
      vertex 22.9536 5.1 22.0158
    endloop
  endfacet
  facet normal -0.453923 0 -0.891041
    outer loop
      vertex 22.9536 7.7 22.0158
      vertex 22.4658 5.1 22.2643
      vertex 22.4658 7.7 22.2643
    endloop
  endfacet
  facet normal -0.891041 0 -0.453923
    outer loop
      vertex 23.5893 0 21.1408
      vertex 23.3408 2.6 21.6286
      vertex 23.5893 2.6 21.1408
    endloop
  endfacet
  facet normal -0.891041 -0 -0.453923
    outer loop
      vertex 23.3408 2.6 21.6286
      vertex 23.5893 0 21.1408
      vertex 23.3408 0 21.6286
    endloop
  endfacet
  facet normal -0.891041 0 -0.453923
    outer loop
      vertex 23.5893 5.1 21.1408
      vertex 23.3408 7.7 21.6286
      vertex 23.5893 7.7 21.1408
    endloop
  endfacet
  facet normal -0.891041 -0 -0.453923
    outer loop
      vertex 23.3408 7.7 21.6286
      vertex 23.5893 5.1 21.1408
      vertex 23.3408 5.1 21.6286
    endloop
  endfacet
  facet normal -0.156516 0 -0.987675
    outer loop
      vertex 21.925 5.1 22.35
      vertex 22.4658 7.7 22.2643
      vertex 22.4658 5.1 22.2643
    endloop
  endfacet
  facet normal -0.156516 0 -0.987675
    outer loop
      vertex 22.4658 7.7 22.2643
      vertex 21.925 5.1 22.35
      vertex 21.925 7.7 22.35
    endloop
  endfacet
  facet normal -0.156516 0 -0.987675
    outer loop
      vertex 21.925 0 22.35
      vertex 22.4658 2.6 22.2643
      vertex 22.4658 0 22.2643
    endloop
  endfacet
  facet normal -0.156516 0 -0.987675
    outer loop
      vertex 22.4658 2.6 22.2643
      vertex 21.925 0 22.35
      vertex 21.925 2.6 22.35
    endloop
  endfacet
  facet normal -0.987675 0 -0.156516
    outer loop
      vertex 23.675 5.1 20.6
      vertex 23.5893 7.7 21.1408
      vertex 23.675 7.7 20.6
    endloop
  endfacet
  facet normal -0.987675 -0 -0.156516
    outer loop
      vertex 23.5893 7.7 21.1408
      vertex 23.675 5.1 20.6
      vertex 23.5893 5.1 21.1408
    endloop
  endfacet
  facet normal -0.987675 0 -0.156516
    outer loop
      vertex 23.675 0 20.6
      vertex 23.5893 2.6 21.1408
      vertex 23.675 2.6 20.6
    endloop
  endfacet
  facet normal -0.987675 -0 -0.156516
    outer loop
      vertex 23.5893 2.6 21.1408
      vertex 23.675 0 20.6
      vertex 23.5893 0 21.1408
    endloop
  endfacet
  facet normal 0.987675 0 -0.156516
    outer loop
      vertex 20.2607 5.1 21.1408
      vertex 20.175 7.7 20.6
      vertex 20.2607 7.7 21.1408
    endloop
  endfacet
  facet normal 0.987675 0 -0.156516
    outer loop
      vertex 20.175 7.7 20.6
      vertex 20.2607 5.1 21.1408
      vertex 20.175 5.1 20.6
    endloop
  endfacet
  facet normal 0.987675 0 -0.156516
    outer loop
      vertex 20.2607 0 21.1408
      vertex 20.175 2.6 20.6
      vertex 20.2607 2.6 21.1408
    endloop
  endfacet
  facet normal 0.987675 0 -0.156516
    outer loop
      vertex 20.175 2.6 20.6
      vertex 20.2607 0 21.1408
      vertex 20.175 0 20.6
    endloop
  endfacet
  facet normal 0.891041 0 -0.453923
    outer loop
      vertex 20.5092 0 21.6286
      vertex 20.2607 2.6 21.1408
      vertex 20.5092 2.6 21.6286
    endloop
  endfacet
  facet normal 0.891041 0 -0.453923
    outer loop
      vertex 20.2607 2.6 21.1408
      vertex 20.5092 0 21.6286
      vertex 20.2607 0 21.1408
    endloop
  endfacet
  facet normal 0.891041 0 -0.453923
    outer loop
      vertex 20.5092 5.1 21.6286
      vertex 20.2607 7.7 21.1408
      vertex 20.5092 7.7 21.6286
    endloop
  endfacet
  facet normal 0.891041 0 -0.453923
    outer loop
      vertex 20.2607 7.7 21.1408
      vertex 20.5092 5.1 21.6286
      vertex 20.2607 5.1 21.1408
    endloop
  endfacet
  facet normal 0.156516 0 -0.987675
    outer loop
      vertex 21.3842 0 22.2643
      vertex 21.925 2.6 22.35
      vertex 21.925 0 22.35
    endloop
  endfacet
  facet normal 0.156516 0 -0.987675
    outer loop
      vertex 21.925 2.6 22.35
      vertex 21.3842 0 22.2643
      vertex 21.3842 2.6 22.2643
    endloop
  endfacet
  facet normal 0.156516 0 -0.987675
    outer loop
      vertex 21.3842 5.1 22.2643
      vertex 21.925 7.7 22.35
      vertex 21.925 5.1 22.35
    endloop
  endfacet
  facet normal 0.156516 0 -0.987675
    outer loop
      vertex 21.925 7.7 22.35
      vertex 21.3842 5.1 22.2643
      vertex 21.3842 7.7 22.2643
    endloop
  endfacet
  facet normal -0.707107 0 -0.707107
    outer loop
      vertex 23.3408 0 21.6286
      vertex 22.9536 2.6 22.0158
      vertex 23.3408 2.6 21.6286
    endloop
  endfacet
  facet normal -0.707107 -0 -0.707107
    outer loop
      vertex 22.9536 2.6 22.0158
      vertex 23.3408 0 21.6286
      vertex 22.9536 0 22.0158
    endloop
  endfacet
  facet normal -0.707107 0 -0.707107
    outer loop
      vertex 23.3408 5.1 21.6286
      vertex 22.9536 7.7 22.0158
      vertex 23.3408 7.7 21.6286
    endloop
  endfacet
  facet normal -0.707107 -0 -0.707107
    outer loop
      vertex 22.9536 7.7 22.0158
      vertex 23.3408 5.1 21.6286
      vertex 22.9536 5.1 22.0158
    endloop
  endfacet
  facet normal 0.453923 0 -0.891041
    outer loop
      vertex 20.8964 5.1 22.0158
      vertex 21.3842 7.7 22.2643
      vertex 21.3842 5.1 22.2643
    endloop
  endfacet
  facet normal 0.453923 0 -0.891041
    outer loop
      vertex 21.3842 7.7 22.2643
      vertex 20.8964 5.1 22.0158
      vertex 20.8964 7.7 22.0158
    endloop
  endfacet
  facet normal 0.453923 0 -0.891041
    outer loop
      vertex 20.8964 0 22.0158
      vertex 21.3842 2.6 22.2643
      vertex 21.3842 0 22.2643
    endloop
  endfacet
  facet normal 0.453923 0 -0.891041
    outer loop
      vertex 21.3842 2.6 22.2643
      vertex 20.8964 0 22.0158
      vertex 20.8964 2.6 22.0158
    endloop
  endfacet
  facet normal 0.707107 0 -0.707107
    outer loop
      vertex 20.8964 0 22.0158
      vertex 20.5092 2.6 21.6286
      vertex 20.8964 2.6 22.0158
    endloop
  endfacet
  facet normal 0.707107 0 -0.707107
    outer loop
      vertex 20.5092 2.6 21.6286
      vertex 20.8964 0 22.0158
      vertex 20.5092 0 21.6286
    endloop
  endfacet
  facet normal 0.707107 0 -0.707107
    outer loop
      vertex 20.8964 5.1 22.0158
      vertex 20.5092 7.7 21.6286
      vertex 20.8964 7.7 22.0158
    endloop
  endfacet
  facet normal 0.707107 0 -0.707107
    outer loop
      vertex 20.5092 7.7 21.6286
      vertex 20.8964 5.1 22.0158
      vertex 20.5092 5.1 21.6286
    endloop
  endfacet
  facet normal -0 0 1
    outer loop
      vertex 16.925 7.7 25
      vertex 26.925 0 25
      vertex 26.925 7.7 25
    endloop
  endfacet
  facet normal 0 0 1
    outer loop
      vertex 26.925 0 25
      vertex 16.925 7.7 25
      vertex 16.925 0 25
    endloop
  endfacet
  facet normal 0 0 -1
    outer loop
      vertex 0 0 0
      vertex 26.925 7.7 0
      vertex 26.925 0 0
    endloop
  endfacet
  facet normal -0 0 -1
    outer loop
      vertex 26.925 7.7 0
      vertex 0 0 0
      vertex 0 7.7 0
    endloop
  endfacet
  facet normal -1 0 0
    outer loop
      vertex 16.925 0 10
      vertex 16.925 7.7 25
      vertex 16.925 7.7 10
    endloop
  endfacet
  facet normal -1 -0 0
    outer loop
      vertex 16.925 7.7 25
      vertex 16.925 0 10
      vertex 16.925 0 25
    endloop
  endfacet
  facet normal -0.707107 0 0.707107
    outer loop
      vertex 8.725 0 1.8
      vertex 16.925 7.7 10
      vertex 8.725 7.7 1.8
    endloop
  endfacet
  facet normal -0.707107 0 0.707107
    outer loop
      vertex 16.925 7.7 10
      vertex 8.725 0 1.8
      vertex 16.925 0 10
    endloop
  endfacet
  facet normal -0 0 1
    outer loop
      vertex 0 7.7 1.8
      vertex 8.725 0 1.8
      vertex 8.725 7.7 1.8
    endloop
  endfacet
  facet normal 0 0 1
    outer loop
      vertex 8.725 0 1.8
      vertex 0 7.7 1.8
      vertex 0 0 1.8
    endloop
  endfacet
  facet normal -1 0 0
    outer loop
      vertex 0 0 0
      vertex 0 7.7 1.8
      vertex 0 7.7 0
    endloop
  endfacet
  facet normal -1 -0 0
    outer loop
      vertex 0 7.7 1.8
      vertex 0 0 0
      vertex 0 0 1.8
    endloop
  endfacet
endsolid OpenSCAD_Model
